<svg viewBox="0 0 155 24" fill="none" xmlns="http://www.w3.org/2000/svg"><path d="M28.303.028 25.24 1.597a.26.26 0 0 0-.139.23v11.6H3.562v-11.6a.26.26 0 0 0-.139-.23L.361.028A.25.25 0 0 0 0 .258V21.78c0 1.015.797 1.838 1.782 1.838s1.782-.821 1.782-1.838v-4.678h21.538v4.678c0 1.015.797 1.838 1.782 1.838.983 0 1.782-.821 1.782-1.838V.26c0-.19-.194-.316-.36-.23z" fill="#FF6B55"/><path d="M47.305 16.054c0 4.672-3.205 7.946-7.797 7.946s-7.826-3.274-7.826-7.946c0-4.673 3.206-7.98 7.826-7.98 4.621 0 7.797 3.275 7.797 7.98m-4.037 0c0-2.48-1.54-4.197-3.76-4.197s-3.79 1.718-3.79 4.197 1.541 4.164 3.79 4.164 3.76-1.718 3.76-4.164m12.634-7.597V5.039c0-1.15-.903-2.082-2.019-2.082-1.115 0-2.018.931-2.018 2.082v3.418h-1.449c-.935 0-1.694.782-1.694 1.747s.758 1.748 1.694 1.748h1.45v5.626c0 3.879 2.217 6.422 6.162 6.422.553 0 1.115-.034 1.714-.14.894-.159 1.551-.954 1.551-1.891 0-1.21-1.07-2.1-2.22-1.878q-.3.06-.584.06c-1.51 0-2.587-.795-2.587-2.575V11.95h3.697c.936 0 1.694-.782 1.694-1.748 0-.965-.758-1.747-1.694-1.747h-3.697zm75.785 0V5.039c0-1.15-.903-2.082-2.018-2.082s-2.018.931-2.018 2.082v3.418h-1.449c-.936 0-1.694.782-1.694 1.747s.758 1.748 1.694 1.748h1.449v5.626c0 3.879 2.218 6.422 6.163 6.422.553 0 1.115-.034 1.714-.14.894-.159 1.551-.954 1.551-1.891 0-1.21-1.069-2.1-2.22-1.878q-.3.06-.584.06c-1.511 0-2.588-.795-2.588-2.575V11.95h3.698c.936 0 1.694-.782 1.694-1.748 0-.965-.758-1.747-1.694-1.747h-3.698zM67.21 17.26c.309 1.748 1.418 3.084 3.73 3.084.945 0 1.63-.147 2.137-.63a.78.78 0 0 1 .538-.228h3.861c.132 0 .225.138.176.263C76.599 22.447 74.042 24 70.909 24c-4.715 0-7.826-3.433-7.826-7.946 0-4.514 3.08-7.98 7.58-7.98 4.921 0 7.943 3.74 7.386 8.78a.445.445 0 0 1-.434.407zm.092-2.828h6.687c-.216-1.938-1.418-2.828-3.297-2.828-1.972 0-3.02 1.24-3.39 2.829M85.176 2.082v19.454c0 1.15-.903 2.082-2.019 2.082-1.115 0-2.018-.931-2.018-2.082V2.082C81.14.932 82.042 0 83.157 0c1.116 0 2.019.931 2.019 2.082M99.75 9.314c-1.139-.763-2.588-1.24-4.221-1.24-4.068 0-7.333 3.56-7.333 7.98 0 4.419 3.267 7.946 7.333 7.946 1.633 0 3.082-.478 4.221-1.24 0 .475.372.858.832.858h2.372a.844.844 0 0 0 .831-.857V9.314a.844.844 0 0 0-.831-.857h-2.372a.844.844 0 0 0-.832.857m-3.294 11.38c-2.87.294-5.264-2.173-4.98-5.135.21-2.19 1.928-3.962 4.051-4.178 2.868-.293 5.26 2.171 4.978 5.132-.209 2.191-1.925 3.963-4.05 4.18m21.751-11.379c-1.139-.763-2.588-1.24-4.222-1.24-4.067 0-7.333 3.56-7.333 7.98 0 4.419 3.266 7.946 7.333 7.946 1.634 0 3.083-.478 4.222-1.24 0 .475.372.858.831.858h2.372c.46 0 .832-.383.832-.857V9.314a.845.845 0 0 0-.832-.857h-2.372a.844.844 0 0 0-.831.857m-3.297 11.38c-2.87.293-5.26-2.175-4.976-5.135.211-2.19 1.927-3.962 4.051-4.18 2.87-.293 5.262 2.173 4.978 5.134-.21 2.191-1.928 3.963-4.051 4.179z" fill="#6333A6"/><path d="M144.279 8.455h-2.249c-.936 0-1.694.782-1.694 1.747v.002c0 .965.758 1.748 1.694 1.748h2.249c.935 0 1.694-.783 1.694-1.748v-.002c0-.965-.759-1.747-1.694-1.747m9.027 0h-2.249c-.936 0-1.694.782-1.694 1.747v.002c0 .965.758 1.748 1.694 1.748h2.249c.936 0 1.694-.783 1.694-1.748v-.002c0-.965-.758-1.747-1.694-1.747m-3.943-4.068c0-.965-.759-1.748-1.694-1.748-.936 0-1.694.783-1.694 1.748v2.32c0 .965.758 1.748 1.694 1.748s1.694-.783 1.694-1.748zm0 9.313c0-.966-.759-1.748-1.694-1.748-.936 0-1.694.782-1.694 1.747v2.32c0 .966.758 1.748 1.694 1.748s1.694-.782 1.694-1.747z" fill="#FF6B55"/></svg>