<svg viewBox="0 0 120 18" fill="none" xmlns="http://www.w3.org/2000/svg"><g clip-path="url(#a)"><path d="m22.23.021-2.353 1.176a.19.19 0 0 0-.107.173v8.7H3.235v-8.7c0-.073-.04-.14-.107-.173L.777.021A.192.192 0 0 0 .5.194v16.141c0 .761.612 1.379 1.368 1.379s1.368-.616 1.368-1.379v-3.508h16.536v3.508c0 .761.612 1.379 1.368 1.379.755 0 1.368-.616 1.368-1.379V.195a.192.192 0 0 0-.277-.174z" fill="#FF6B55"/><path d="M36.818 12.04c0 3.504-2.461 5.96-5.986 5.96s-6.008-2.456-6.008-5.96 2.46-5.984 6.008-5.984 5.986 2.456 5.986 5.984m-3.1 0c0-1.859-1.182-3.147-2.886-3.147s-2.91 1.288-2.91 3.147c0 1.86 1.183 3.123 2.91 3.123s2.887-1.288 2.887-3.123m9.699-5.697V3.779c0-.863-.693-1.561-1.55-1.561-.856 0-1.549.698-1.549 1.561v2.564h-1.112c-.719 0-1.3.586-1.3 1.31s.581 1.311 1.3 1.311h1.112v4.22c0 2.909 1.703 4.816 4.732 4.816a7.6 7.6 0 0 0 1.316-.105 1.44 1.44 0 0 0 1.19-1.418c0-.907-.82-1.576-1.704-1.409q-.23.045-.448.046c-1.16 0-1.987-.597-1.987-1.932v-4.22h2.839c.718 0 1.3-.586 1.3-1.31s-.582-1.31-1.3-1.31h-2.839m58.184.001V3.779c0-.863-.693-1.561-1.55-1.561-.856 0-1.55.698-1.55 1.561v2.564h-1.111c-.719 0-1.301.586-1.301 1.31s.582 1.311 1.3 1.311h1.113v4.22c0 2.909 1.702 4.816 4.731 4.816.425 0 .856-.025 1.316-.105a1.44 1.44 0 0 0 1.191-1.418c0-.907-.821-1.576-1.704-1.409q-.23.045-.449.046c-1.16 0-1.986-.597-1.986-1.932v-4.22h2.839c.718 0 1.3-.586 1.3-1.31s-.582-1.31-1.3-1.31h-2.839m-41.515 6.604H52.1c.237 1.31 1.089 2.312 2.863 2.312.726 0 1.252-.11 1.641-.473a.6.6 0 0 1 .414-.17h2.964c.1 0 .172.103.135.197C59.308 16.835 57.345 18 54.939 18c-3.619 0-6.008-2.575-6.008-5.96s2.365-5.984 5.82-5.984c3.778 0 6.098 2.804 5.67 6.585a.34.34 0 0 1-.332.304zm-7.916-2.122h5.133c-.166-1.454-1.088-2.12-2.53-2.12-1.515 0-2.32.929-2.603 2.12m13.722-9.262v14.59c0 .863-.693 1.562-1.55 1.562-.856 0-1.55-.699-1.55-1.562V1.562c0-.863.694-1.562 1.55-1.562s1.55.699 1.55 1.562m11.189 5.424c-.874-.573-1.986-.93-3.24-.93-3.123 0-5.63 2.67-5.63 5.984S70.72 18 73.841 18c1.254 0 2.366-.359 3.24-.93a.64.64 0 0 0 .639.644h1.82a.64.64 0 0 0 .639-.644V6.986a.64.64 0 0 0-.638-.644H77.72a.64.64 0 0 0-.639.644m-2.53 8.534c-2.203.221-4.04-1.63-3.822-3.851.161-1.642 1.48-2.972 3.11-3.133 2.202-.22 4.038 1.628 3.822 3.848-.16 1.644-1.478 2.973-3.11 3.136m16.701-8.534c-.875-.573-1.987-.93-3.241-.93-3.123 0-5.63 2.67-5.63 5.984S84.888 18 88.01 18c1.254 0 2.366-.359 3.24-.93a.64.64 0 0 0 .64.644h1.82a.64.64 0 0 0 .639-.644V6.986a.64.64 0 0 0-.639-.644h-1.82a.64.64 0 0 0-.64.644m-2.53 8.534c-2.203.22-4.038-1.63-3.82-3.851.161-1.642 1.479-2.972 3.11-3.135 2.203-.22 4.04 1.63 3.822 3.85-.162 1.644-1.481 2.973-3.11 3.135z" fill="#fff"/><path d="M111.269 6.34h-1.727c-.718 0-1.301.588-1.301 1.312s.583 1.312 1.301 1.312h1.727c.718 0 1.3-.587 1.3-1.311v-.001c0-.724-.582-1.311-1.3-1.311m6.93-.001h-1.726c-.719 0-1.301.588-1.301 1.312s.582 1.312 1.301 1.312h1.726c.719 0 1.301-.587 1.301-1.311v-.001c0-.724-.582-1.311-1.301-1.311m-3.027-3.051c0-.724-.583-1.31-1.301-1.31s-1.301.586-1.301 1.31v1.74c0 .724.583 1.311 1.301 1.311s1.301-.587 1.301-1.31zm0 6.985c0-.724-.583-1.311-1.301-1.311s-1.301.587-1.301 1.31v1.74c0 .725.583 1.311 1.301 1.311s1.301-.586 1.301-1.31z" fill="#FF6B55"/></g><defs><clipPath id="a"><path fill="#fff" d="M.5 0h119v18H.5z"/></clipPath></defs></svg>