<svg viewBox="0 0 25 24" fill="none" xmlns="http://www.w3.org/2000/svg"><path d="M.5 1.72C.5.77 1.294 0 2.274 0h20.452c.98 0 1.774.77 1.774 1.72v20.56c0 .95-.794 1.719-1.774 1.719H2.274C1.294 24 .5 23.23.5 22.281z" fill="#fff"/><path d="M7.793 20.085V9.28H4.202v10.805zM5.998 7.805c1.252 0 2.032-.83 2.032-1.867-.023-1.06-.78-1.867-2.008-1.867-1.229 0-2.032.807-2.032 1.867 0 1.037.78 1.867 1.985 1.867zm3.783 12.28h3.591V14.05c0-.322.024-.645.119-.876.26-.645.85-1.313 1.842-1.313 1.3 0 1.82.99 1.82 2.443v5.78h3.59v-6.196c0-3.318-1.771-4.862-4.134-4.862-1.937 0-2.788 1.082-3.26 1.82h.024V9.28H9.78c.047 1.014 0 10.805 0 10.805" fill="#6333A6"/></svg>