<svg width="20" height="21" viewBox="0 0 20 21" fill="none" xmlns="http://www.w3.org/2000/svg">
<path d="M18.7623 17.7625L19.7303 17.5114L18.7623 17.7625ZM18.5287 16.8621L17.5608 17.1132L17.5608 17.1133L18.5287 16.8621ZM1.47126 16.8622L0.503298 16.611L0.503298 16.611L1.47126 16.8622ZM1.23769 17.7625L2.20565 18.0136L1.23769 17.7625ZM2.28457 15.586L1.90927 14.6591H1.90927L2.28457 15.586ZM1.8021 15.949L2.59176 16.5626L2.59176 16.5626L1.8021 15.949ZM18.1979 15.949L17.4082 16.5626L18.1979 15.949ZM17.7154 15.586L18.0907 14.6591L17.7154 15.586ZM18.4522 19.8371L17.9479 18.9735L18.4522 19.8371ZM18.9628 19.2069L19.915 19.5123V19.5123L18.9628 19.2069ZM1.54784 19.8371L2.05207 18.9735H2.05207L1.54784 19.8371ZM1.03723 19.2069L1.98946 18.9015H1.98946L1.03723 19.2069ZM9.16436 1.26981L8.73027 0.368944L8.73027 0.368944L9.16436 1.26981ZM2.32854 4.56369L2.76262 5.46456H2.76262L2.32854 4.56369ZM1.4929 6.97963L0.605254 7.44017H0.605254L1.4929 6.97963ZM1.69598 7.37107L2.58363 6.91054L2.58363 6.91054L1.69598 7.37107ZM18.304 7.37107L17.4164 6.91054L17.4164 6.91054L18.304 7.37107ZM18.5071 6.97963L17.6195 6.5191V6.5191L18.5071 6.97963ZM17.6715 4.56369L18.1056 3.66282L17.6715 4.56369ZM10.8356 1.26981L11.2697 0.368944V0.368944L10.8356 1.26981ZM18.9437 5.86378L19.9437 5.8559L18.9437 5.86378ZM18.7155 5.2039L17.9216 5.812L17.9216 5.812L18.7155 5.2039ZM1.28451 5.2039L0.490654 4.5958L0.490654 4.5958L1.28451 5.2039ZM1.05627 5.86378L0.0563029 5.8559L1.05627 5.86378ZM18.0897 7.60455L17.7742 6.6556L17.7742 6.6556L18.0897 7.60455ZM18.1988 7.53957L18.8852 8.26679L18.8852 8.26679L18.1988 7.53957ZM1.91034 7.60455L2.22578 6.6556H2.22578L1.91034 7.60455ZM1.80125 7.53957L1.11484 8.26679L1.11485 8.26679L1.80125 7.53957ZM9.78465 1.0193L9.60673 0.0352551L9.78465 1.0193ZM10.2153 1.0193L10.3933 0.035255L10.2153 1.0193ZM3.16078 14.3727C3.16078 14.925 3.6085 15.3727 4.16078 15.3727C4.71307 15.3727 5.16078 14.925 5.16078 14.3727H3.16078ZM5.16078 7.61993C5.16078 7.06764 4.71307 6.61993 4.16078 6.61993C3.6085 6.61993 3.16078 7.06764 3.16078 7.61993H5.16078ZM9 14.3727C9 14.925 9.44772 15.3727 10 15.3727C10.5523 15.3727 11 14.925 11 14.3727H9ZM11 8.74539C11 8.1931 10.5523 7.74539 10 7.74539C9.44772 7.74539 9 8.1931 9 8.74539H11ZM14.8392 14.3727C14.8392 14.925 15.2869 15.3727 15.8392 15.3727C16.3915 15.3727 16.8392 14.925 16.8392 14.3727H14.8392ZM16.8392 8.74539C16.8392 8.1931 16.3915 7.74539 15.8392 7.74539C15.2869 7.74539 14.8392 8.1931 14.8392 8.74539H16.8392ZM3.05045 21H16.9496V19H3.05045V21ZM19.7303 17.5114L19.4967 16.611L17.5608 17.1133L17.7944 18.0136L19.7303 17.5114ZM16.716 14.4982H3.28402V16.4982H16.716V14.4982ZM0.503298 16.611L0.269729 17.5114L2.20565 18.0136L2.43922 17.1133L0.503298 16.611ZM3.28402 14.4982C2.85256 14.4982 2.35102 14.4802 1.90927 14.6591L2.65987 16.5129C2.63296 16.5238 2.63662 16.5139 2.7396 16.5067C2.85434 16.4987 3.00943 16.4982 3.28402 16.4982V14.4982ZM2.43922 17.1133C2.50617 16.8552 2.54335 16.7144 2.57781 16.6132C2.60788 16.525 2.61501 16.5327 2.59176 16.5626L1.01245 15.3355C0.714148 15.7194 0.606295 16.214 0.503298 16.611L2.43922 17.1133ZM1.90927 14.6591C1.55762 14.8015 1.24706 15.0335 1.01245 15.3355L2.59176 16.5626C2.60609 16.5442 2.62861 16.5256 2.65987 16.5129L1.90927 14.6591ZM19.4967 16.6111C19.3937 16.214 19.2859 15.7194 18.9876 15.3355L17.4082 16.5626C17.385 16.5327 17.3921 16.525 17.4222 16.6132C17.4567 16.7144 17.4938 16.8552 17.5608 17.1132L19.4967 16.6111ZM16.716 16.4982C16.9906 16.4982 17.1457 16.4987 17.2604 16.5067C17.3634 16.5139 17.367 16.5238 17.3401 16.5129L18.0907 14.6591C17.649 14.4802 17.1474 14.4982 16.716 14.4982V16.4982ZM18.9876 15.3355C18.7529 15.0335 18.4424 14.8015 18.0907 14.6591L17.3401 16.5129C17.3714 16.5256 17.3939 16.5442 17.4082 16.5626L18.9876 15.3355ZM16.9496 21C17.3397 21 17.6959 21.0009 17.9871 20.976C18.2845 20.9507 18.629 20.8918 18.9564 20.7007L17.9479 18.9735C17.9963 18.9453 17.9974 18.9679 17.8172 18.9833C17.6308 18.9991 17.3751 19 16.9496 19V21ZM17.7943 18.0136C17.8981 18.4134 17.9578 18.6474 17.986 18.8199C18.013 18.9844 17.9881 18.9714 18.0105 18.9015L19.915 19.5123C20.0338 19.142 20.0075 18.7881 19.9597 18.4963C19.9131 18.2123 19.8244 17.8743 19.7303 17.5114L17.7943 18.0136ZM18.9564 20.7007C19.4083 20.4368 19.7532 20.0167 19.915 19.5123L18.0105 18.9015C18.0035 18.9235 17.9851 18.9519 17.9479 18.9735L18.9564 20.7007ZM3.05045 19C2.62488 19 2.36917 18.9991 2.1828 18.9833C2.00257 18.9679 2.00367 18.9453 2.05207 18.9735L1.04361 20.7007C1.37098 20.8918 1.71551 20.9507 2.0129 20.976C2.30415 21.0009 2.66026 21 3.05045 21V19ZM0.269729 17.5114C0.175582 17.8743 0.0868936 18.2123 0.0403284 18.4963C-0.00753689 18.7881 -0.0337508 19.142 0.0850043 19.5123L1.98946 18.9015C2.0119 18.9714 1.98699 18.9844 2.01397 18.8199C2.04225 18.6474 2.10195 18.4134 2.20565 18.0136L0.269729 17.5114ZM2.05207 18.9735C2.01494 18.9519 1.99654 18.9235 1.98946 18.9015L0.0850042 19.5123C0.246767 20.0167 0.591711 20.4368 1.04361 20.7007L2.05207 18.9735ZM2.11381 8.61993H17.8862V6.61993H2.11381V8.61993ZM8.73027 0.368944L1.89445 3.66282L2.76262 5.46456L9.59845 2.17068L8.73027 0.368944ZM0.605254 7.44017L0.808343 7.8316L2.58363 6.91054L2.38054 6.5191L0.605254 7.44017ZM19.1917 7.8316L19.3947 7.44016L17.6195 6.5191L17.4164 6.91054L19.1917 7.8316ZM18.1056 3.66282L11.2697 0.368944L10.4016 2.17068L17.2374 5.46456L18.1056 3.66282ZM19.3947 7.44017C19.5332 7.17334 19.6662 6.91882 19.7589 6.6965C19.856 6.46347 19.9463 6.18254 19.9437 5.8559L17.9438 5.87166C17.9433 5.81521 17.9615 5.81032 17.9129 5.92673C17.8599 6.05384 17.7735 6.22215 17.6195 6.5191L19.3947 7.44017ZM17.2374 5.46456C17.5445 5.61255 17.7213 5.69859 17.8458 5.77134C17.9614 5.83888 17.951 5.85034 17.9216 5.812L19.5093 4.5958C19.3135 4.34008 19.0736 4.17238 18.855 4.04463C18.6453 3.92209 18.3834 3.79671 18.1056 3.66282L17.2374 5.46456ZM19.9437 5.8559C19.9401 5.39796 19.786 4.95691 19.5093 4.5958L17.9216 5.812C17.938 5.83333 17.9436 5.85427 17.9438 5.87166L19.9437 5.8559ZM1.89445 3.66282C1.61657 3.79671 1.35466 3.92209 1.14499 4.04463C0.92642 4.17238 0.686536 4.34008 0.490654 4.5958L2.07837 5.812C2.04901 5.85034 2.03864 5.83888 2.1542 5.77134C2.27866 5.69859 2.4555 5.61255 2.76262 5.46456L1.89445 3.66282ZM2.38054 6.5191C2.22647 6.22215 2.14007 6.05384 2.08706 5.92673C2.03852 5.81032 2.05669 5.81521 2.05624 5.87166L0.0563029 5.8559C0.0537299 6.18254 0.143958 6.46347 0.241134 6.6965C0.333846 6.91882 0.466818 7.17334 0.605254 7.44017L2.38054 6.5191ZM0.490654 4.5958C0.214047 4.95691 0.0599103 5.39796 0.0563029 5.8559L2.05624 5.87166C2.05638 5.85427 2.06204 5.83333 2.07837 5.812L0.490654 4.5958ZM17.8862 8.61993C17.9207 8.61993 18.1685 8.63214 18.4051 8.55349L17.7742 6.6556C17.864 6.62577 17.9338 6.62077 17.9499 6.6198C17.9568 6.61939 17.957 6.6196 17.9439 6.61975C17.9306 6.61991 17.9141 6.61993 17.8862 6.61993V8.61993ZM17.4164 6.91054C17.4038 6.93471 17.3967 6.94845 17.3909 6.95927C17.3852 6.96991 17.3858 6.96831 17.3903 6.96086C17.4008 6.94338 17.4403 6.8804 17.5123 6.81236L18.8852 8.26679C19.0725 8.08994 19.1779 7.85803 19.1917 7.8316L17.4164 6.91054ZM18.4051 8.55349C18.5823 8.49458 18.7467 8.39748 18.8852 8.26679L17.5123 6.81235C17.589 6.74003 17.6788 6.68732 17.7742 6.6556L18.4051 8.55349ZM2.11381 6.61993C2.08591 6.61993 2.06937 6.61991 2.0561 6.61975C2.04299 6.6196 2.04317 6.61939 2.05011 6.6198C2.06618 6.62077 2.13605 6.62577 2.22578 6.6556L1.5949 8.55349C1.8315 8.63214 2.07927 8.61993 2.11381 8.61993V6.61993ZM0.808343 7.8316C0.822044 7.85801 0.927479 8.08994 1.11484 8.26679L2.48766 6.81236C2.55975 6.8804 2.59917 6.94339 2.6097 6.96086C2.61418 6.96831 2.6148 6.96992 2.6091 6.95927C2.60332 6.94845 2.59617 6.93471 2.58363 6.91054L0.808343 7.8316ZM2.22578 6.6556C2.3212 6.68732 2.41103 6.74003 2.48765 6.81235L1.11485 8.26679C1.25331 8.39748 1.41766 8.49458 1.5949 8.55349L2.22578 6.6556ZM9.59845 2.17068C9.76062 2.09254 9.84862 2.05048 9.91584 2.0223C9.97349 1.99812 9.97865 2.00044 9.96257 2.00334L9.60673 0.0352551C9.28101 0.094148 8.98653 0.245463 8.73027 0.368944L9.59845 2.17068ZM11.2697 0.368944C11.0135 0.245463 10.719 0.0941479 10.3933 0.035255L10.0374 2.00334C10.0214 2.00044 10.0265 1.99812 10.0842 2.0223C10.1514 2.05048 10.2394 2.09254 10.4016 2.17068L11.2697 0.368944ZM9.96257 2.00334C9.98724 1.99889 10.0128 1.99889 10.0374 2.00334L10.3933 0.035255C10.1333 -0.0117517 9.86672 -0.0117518 9.60673 0.0352551L9.96257 2.00334ZM5.16078 14.3727V7.61993H3.16078V14.3727H5.16078ZM11 14.3727V8.74539H9V14.3727H11ZM16.8392 14.3727V8.74539H14.8392V14.3727H16.8392Z" fill="#6333A6"/>
</svg>
