<svg width="44" height="48" viewBox="0 0 44 48" fill="none" xmlns="http://www.w3.org/2000/svg">
<path d="M12.6663 28.1667C11.2856 28.1667 10.1663 29.286 10.1663 30.6667C10.1663 32.0475 11.2856 33.1667 12.6663 33.1667V28.1667ZM17.333 33.1667C18.7137 33.1667 19.833 32.0475 19.833 30.6667C19.833 29.286 18.7137 28.1667 17.333 28.1667V33.1667ZM12.6663 18.8334C11.2856 18.8334 10.1663 19.9527 10.1663 21.3334C10.1663 22.7141 11.2856 23.8334 12.6663 23.8334V18.8334ZM26.6663 23.8334C28.0471 23.8334 29.1663 22.7141 29.1663 21.3334C29.1663 19.9527 28.0471 18.8334 26.6663 18.8334V23.8334ZM12.6663 9.50008C11.2856 9.50008 10.1663 10.6194 10.1663 12.0001C10.1663 13.3808 11.2856 14.5001 12.6663 14.5001V9.50008ZM26.6663 14.5001C28.0471 14.5001 29.1663 13.3808 29.1663 12.0001C29.1663 10.6194 28.0471 9.50008 26.6663 9.50008V14.5001ZM33.4997 24.8334C33.4997 26.2141 34.619 27.3334 35.9997 27.3334C37.3804 27.3334 38.4997 26.2141 38.4997 24.8334H33.4997ZM17.333 47.1667C18.7137 47.1667 19.833 46.0475 19.833 44.6667C19.833 43.286 18.7137 42.1667 17.333 42.1667V47.1667ZM5.84846 44.1413L7.0009 41.9228L7.00089 41.9228L5.84846 44.1413ZM3.85841 42.1513L1.63988 43.3037L1.63988 43.3037L3.85841 42.1513ZM33.4842 3.19215L32.3318 5.41069L32.3318 5.41069L33.4842 3.19215ZM35.4743 5.1822L33.2557 6.33464V6.33464L35.4743 5.1822ZM5.84846 3.19215L4.69602 0.973618V0.973618L5.84846 3.19215ZM3.85841 5.1822L1.63988 4.02976V4.02976L3.85841 5.1822ZM42.4341 37.1012C43.4104 36.1249 43.4104 34.542 42.4341 33.5656C41.4578 32.5893 39.8749 32.5893 38.8986 33.5656L42.4341 37.1012ZM30.5081 43.8418L28.7403 45.6096H28.7403L30.5081 43.8418ZM28.4341 38.2323C27.4578 37.256 25.8749 37.256 24.8986 38.2323C23.9223 39.2086 23.9223 40.7915 24.8986 41.7678L28.4341 38.2323ZM12.6663 33.1667H17.333V28.1667H12.6663V33.1667ZM12.6663 23.8334H26.6663V18.8334H12.6663V23.8334ZM12.6663 14.5001H26.6663V9.50008H12.6663V14.5001ZM10.8463 5.16675H28.4863V0.166748H10.8463V5.16675ZM33.4997 10.1801V24.8334H38.4997V10.1801H33.4997ZM17.333 42.1667H10.8463V47.1667H17.333V42.1667ZM5.83301 37.1534V10.1801H0.833008V37.1534H5.83301ZM10.8463 42.1667C9.47557 42.1667 8.60036 42.1647 7.93699 42.1096C7.30354 42.057 7.0903 41.9692 7.0009 41.9228L4.69602 46.3599C5.61807 46.8388 6.57496 47.0137 7.52318 47.0925C8.44148 47.1688 9.55949 47.1667 10.8463 47.1667V42.1667ZM0.833008 37.1534C0.833008 38.4403 0.830999 39.5583 0.90726 40.4766C0.986006 41.4248 1.16091 42.3817 1.63988 43.3037L6.07695 40.9989C6.0305 40.9095 5.94271 40.6962 5.89011 40.0628C5.83502 39.3994 5.83301 38.5242 5.83301 37.1534H0.833008ZM7.00089 41.9228C6.60517 41.7172 6.28251 41.3946 6.07694 40.9989L1.63988 43.3037C2.31982 44.6127 3.38708 45.6799 4.69603 46.3599L7.00089 41.9228ZM28.4863 5.16675C29.8571 5.16675 30.7323 5.16876 31.3957 5.22385C32.0291 5.27645 32.2424 5.36424 32.3318 5.41069L34.6367 0.973619C33.7146 0.494655 32.7577 0.319746 31.8095 0.241C30.8912 0.164739 29.7732 0.166748 28.4863 0.166748V5.16675ZM38.4997 10.1801C38.4997 8.89323 38.5017 7.77522 38.4254 6.85692C38.3467 5.9087 38.1718 4.95181 37.6928 4.02977L33.2557 6.33464C33.3022 6.42404 33.39 6.63728 33.4426 7.27073C33.4977 7.9341 33.4997 8.80931 33.4997 10.1801H38.4997ZM32.3318 5.41069C32.7275 5.61625 33.0502 5.93891 33.2557 6.33464L37.6928 4.02977C37.0129 2.72082 35.9456 1.65356 34.6367 0.973618L32.3318 5.41069ZM10.8463 0.166748C9.55949 0.166748 8.44148 0.164739 7.52318 0.241C6.57496 0.319746 5.61807 0.494655 4.69602 0.973618L7.0009 5.41069C7.0903 5.36424 7.30354 5.27645 7.93699 5.22385C8.60036 5.16876 9.47557 5.16675 10.8463 5.16675V0.166748ZM5.83301 10.1801C5.83301 8.80931 5.83502 7.9341 5.89011 7.27073C5.94271 6.63728 6.0305 6.42404 6.07695 6.33464L1.63988 4.02976C1.16091 4.95181 0.986006 5.9087 0.90726 6.85692C0.830999 7.77522 0.833008 8.89323 0.833008 10.1801H5.83301ZM4.69602 0.973618C3.38708 1.65356 2.31982 2.72082 1.63988 4.02976L6.07695 6.33464C6.28251 5.93891 6.60517 5.61625 7.0009 5.41069L4.69602 0.973618ZM33.9257 45.6096L42.4341 37.1012L38.8986 33.5656L30.3902 42.074L33.9257 45.6096ZM32.2758 42.074L28.4341 38.2323L24.8986 41.7678L28.7403 45.6096L32.2758 42.074ZM30.3902 42.074C30.9109 41.5533 31.7551 41.5533 32.2758 42.074L28.7403 45.6096C30.1722 47.0415 32.4938 47.0415 33.9257 45.6096L30.3902 42.074Z" fill="#FF6B55"/>
</svg>
