<svg width="18" height="22" viewBox="0 0 18 22" fill="none" xmlns="http://www.w3.org/2000/svg">
<path d="M13 3C13 4.10457 10.3137 5 7 5C3.68629 5 1 4.10457 1 3M13 3C13 1.89543 10.3137 1 7 1C3.68629 1 1 1.89543 1 3M13 3V7M1 3V7C1 8.10457 3.68629 9 7 9C10.3137 9 13 8.10457 13 7M17 8.8862C17 9.99077 14.3137 10.8862 11 10.8862C7.68629 10.8862 5 9.99077 5 8.8862V12.8862M17 8.8862C17 8.01538 15.3304 7.27456 13 7M17 8.8862V12.8862C17 13.9908 14.3137 14.8862 11 14.8862C7.68629 14.8862 5 13.9908 5 12.8862M1 14.7724C1 15.877 3.68629 16.7724 7 16.7724C10.3137 16.7724 13 15.877 13 14.7724V18.7725C13 19.877 10.3137 20.7725 7 20.7725C3.68629 20.7725 1 19.877 1 18.7725V14.7724ZM1 14.7724C1 13.9016 2.66962 13.1608 5 12.8862" stroke="#6333A6" stroke-width="2"/>
</svg>
