<svg width="22" height="22" viewBox="0 0 22 22" fill="none" xmlns="http://www.w3.org/2000/svg">
<path d="M7 1C7 0.447716 6.55229 2.98023e-07 6 1.78814e-07C5.44772 1.19209e-07 5 0.447715 5 1L7 1ZM6 4.4L5 4.4V4.4H6ZM4.4 6L4.4 7H4.4V6ZM1 5C0.447715 5 5.96046e-08 5.44771 0 6C-1.19209e-07 6.55228 0.447715 7 1 7L1 5ZM5.89101 5.45399L6.78201 5.90798L5.89101 5.45399ZM5.45399 5.89101L5.90798 6.78201L5.45399 5.89101ZM4.29289 5.70711C4.68342 6.09763 5.31658 6.09763 5.70711 5.70711C6.09763 5.31658 6.09763 4.68342 5.70711 4.29289L4.29289 5.70711ZM1.70711 0.292893C1.31658 -0.097631 0.683419 -0.0976311 0.292894 0.292893C-0.0976301 0.683417 -0.0976301 1.31658 0.292894 1.70711L1.70711 0.292893ZM5 21C5 21.5523 5.44772 22 6 22C6.55228 22 7 21.5523 7 21H5ZM1 15C0.447715 15 0 15.4477 0 16C0 16.5523 0.447715 17 1 17V15ZM5.89101 16.546L6.78201 16.092L5.89101 16.546ZM5.45399 16.109L5.90798 15.218L5.45399 16.109ZM5.70711 17.7071C6.09763 17.3166 6.09763 16.6834 5.70711 16.2929C5.31658 15.9024 4.68342 15.9024 4.29289 16.2929L5.70711 17.7071ZM0.292893 20.2929C-0.0976311 20.6834 -0.0976311 21.3166 0.292893 21.7071C0.683417 22.0976 1.31658 22.0976 1.70711 21.7071L0.292893 20.2929ZM17 1C17 0.447715 16.5523 1.78814e-07 16 1.78814e-07C15.4477 1.78814e-07 15 0.447715 15 1H17ZM21 7C21.5523 7 22 6.55228 22 6C22 5.44772 21.5523 5 21 5V7ZM16.109 5.45399L15.218 5.90798L16.109 5.45399ZM16.546 5.89101L16.092 6.78201L16.546 5.89101ZM16.2929 4.29289C15.9024 4.68342 15.9024 5.31658 16.2929 5.70711C16.6834 6.09763 17.3166 6.09763 17.7071 5.70711L16.2929 4.29289ZM21.7071 1.70711C22.0976 1.31658 22.0976 0.683418 21.7071 0.292893C21.3166 -0.0976309 20.6834 -0.0976309 20.2929 0.292893L21.7071 1.70711ZM15 21C15 21.5523 15.4477 22 16 22C16.5523 22 17 21.5523 17 21H15ZM21 17C21.5523 17 22 16.5523 22 16C22 15.4477 21.5523 15 21 15V17ZM16.109 16.546L15.218 16.092L16.109 16.546ZM16.546 16.109L16.092 15.218L16.546 16.109ZM17.7071 16.2929C17.3166 15.9024 16.6834 15.9024 16.2929 16.2929C15.9024 16.6834 15.9024 17.3166 16.2929 17.7071L17.7071 16.2929ZM20.2929 21.7071C20.6834 22.0976 21.3166 22.0976 21.7071 21.7071C22.0976 21.3166 22.0976 20.6834 21.7071 20.2929L20.2929 21.7071ZM11 14C9.34315 14 8 12.6569 8 11H6C6 13.7614 8.23858 16 11 16V14ZM14 11C14 12.6569 12.6569 14 11 14V16C13.7614 16 16 13.7614 16 11H14ZM11 8C12.6569 8 14 9.34315 14 11H16C16 8.23858 13.7614 6 11 6V8ZM11 6C8.23858 6 6 8.23858 6 11H8C8 9.34315 9.34315 8 11 8V6ZM5 1L5 4.4L7 4.4L7 1L5 1ZM4.4 5L1 5L1 7L4.4 7L4.4 5ZM5 4.4C5 4.69653 4.99922 4.85878 4.9897 4.97537C4.98113 5.08028 4.9707 5.05751 5 5L6.78201 5.90798C6.92031 5.63656 6.96438 5.36682 6.98305 5.13823C7.00078 4.92131 7 4.66353 7 4.4H5ZM4.4 7C4.66353 7 4.92131 7.00078 5.13823 6.98305C5.36682 6.96438 5.63656 6.92031 5.90798 6.78201L5 5C5.05751 4.9707 5.08028 4.98113 4.97537 4.9897C4.85878 4.99922 4.69653 5 4.4 5V7ZM5 5V5L5.90798 6.78201C6.2843 6.59027 6.59027 6.28431 6.78201 5.90798L5 5ZM5.70711 4.29289L1.70711 0.292893L0.292894 1.70711L4.29289 5.70711L5.70711 4.29289ZM7 21V17.6H5V21H7ZM4.4 15H1V17H4.4V15ZM7 17.6C7 17.3365 7.00078 17.0787 6.98305 16.8618C6.96438 16.6332 6.92031 16.3634 6.78201 16.092L5 17C4.9707 16.9425 4.98113 16.9197 4.9897 17.0246C4.99922 17.1412 5 17.3035 5 17.6H7ZM4.4 17C4.69653 17 4.85878 17.0008 4.97537 17.0103C5.08028 17.0189 5.05751 17.0293 5 17L5.90798 15.218C5.63656 15.0797 5.36682 15.0356 5.13823 15.0169C4.92131 14.9992 4.66353 15 4.4 15V17ZM6.78201 16.092C6.59027 15.7157 6.28431 15.4097 5.90798 15.218L5 17L6.78201 16.092ZM4.29289 16.2929L0.292893 20.2929L1.70711 21.7071L5.70711 17.7071L4.29289 16.2929ZM15 1V4.4H17V1H15ZM17.6 7H21V5H17.6V7ZM15 4.4C15 4.66353 14.9992 4.92131 15.0169 5.13823C15.0356 5.36682 15.0797 5.63656 15.218 5.90798L17 5C17.0293 5.05751 17.0189 5.08028 17.0103 4.97537C17.0008 4.85878 17 4.69653 17 4.4H15ZM17.6 5C17.3035 5 17.1412 4.99922 17.0246 4.9897C16.9197 4.98113 16.9425 4.9707 17 5L16.092 6.78201C16.3634 6.92031 16.6332 6.96438 16.8618 6.98306C17.0787 7.00078 17.3365 7 17.6 7V5ZM15.218 5.90798C15.4097 6.2843 15.7157 6.59027 16.092 6.78201L17 5L15.218 5.90798ZM17.7071 5.70711L21.7071 1.70711L20.2929 0.292893L16.2929 4.29289L17.7071 5.70711ZM17 21V17.6H15V21H17ZM17.6 17H21V15H17.6V17ZM17 17.6C17 17.3035 17.0008 17.1412 17.0103 17.0246C17.0189 16.9197 17.0293 16.9425 17 17L15.218 16.092C15.0797 16.3634 15.0356 16.6332 15.0169 16.8618C14.9992 17.0787 15 17.3365 15 17.6H17ZM17.6 15C17.3365 15 17.0787 14.9992 16.8618 15.0169C16.6332 15.0356 16.3634 15.0797 16.092 15.218L17 17C16.9425 17.0293 16.9197 17.0189 17.0246 17.0103C17.1412 17.0008 17.3035 17 17.6 17V15ZM17 17L16.092 15.218C15.7157 15.4097 15.4097 15.7157 15.218 16.092L17 17ZM16.2929 17.7071L20.2929 21.7071L21.7071 20.2929L17.7071 16.2929L16.2929 17.7071Z" fill="#6333A6"/>
</svg>
