<svg width="58" height="58" viewBox="0 0 58 58" fill="none" xmlns="http://www.w3.org/2000/svg">
<path d="M29.0002 3.33325C14.8249 3.33325 3.3335 14.8246 3.3335 28.9999C3.3335 43.1752 14.8249 54.6666 29.0002 54.6666C41.5818 54.6666 52.0491 45.6138 54.2436 33.6666M18.1518 51.4578C18.3603 44.6693 20.3226 33.439 27.7117 38.3177C36.9481 44.416 34.9962 42.6852 40.1077 41.6392C44.197 40.8024 47.8218 42.901 49.1231 44.0548M6.74146 39.9454C6.89605 36.3634 8.40872 28.3139 13.2227 24.7726C19.2401 20.3458 25.6996 23.2845 20.9117 5.09203M47.6668 14.9999L41.6626 19.5375C41.4348 19.7096 41.0655 19.7096 40.8377 19.5375L38.3335 17.645M54.6668 17.3333C54.6668 23.7766 49.4435 28.9999 43.0002 28.9999C36.5568 28.9999 31.3335 23.7766 31.3335 17.3333C31.3335 10.8899 36.5568 5.66659 43.0002 5.66659C49.4435 5.66659 54.6668 10.8899 54.6668 17.3333Z" stroke="#FF6B55" stroke-width="5" stroke-linecap="round"/>
</svg>
