<svg width="155" height="24" viewBox="0 0 155 24" fill="none" xmlns="http://www.w3.org/2000/svg">
<path d="M28.3034 0.0283932L25.2393 1.59653C25.1551 1.63998 25.1001 1.72878 25.1001 1.82702V13.4274H3.56219V1.82702C3.56219 1.72878 3.50907 1.63998 3.423 1.59653L0.360797 0.0283932C0.194135 -0.0566261 0 0.0680689 0 0.25889V21.7801C0 22.7947 0.796684 23.6184 1.78201 23.6184C2.76733 23.6184 3.56402 22.7966 3.56402 21.7801V17.1022H25.102V21.7801C25.102 22.7947 25.8987 23.6184 26.884 23.6184C27.8675 23.6184 28.666 22.7966 28.666 21.7801V0.25889C28.666 0.0680689 28.4719 -0.0566261 28.3052 0.0283932H28.3034Z" fill="#FF6B55"/>
<path d="M47.3047 16.0535C47.3047 20.7258 44.0997 24 39.5082 24C34.9168 24 31.6824 20.7258 31.6824 16.0535C31.6824 11.3812 34.8875 8.07494 39.5082 8.07494C44.129 8.07494 47.3047 11.3491 47.3047 16.0535ZM43.2682 16.0535C43.2682 13.5747 41.728 11.8574 39.5082 11.8574C37.2885 11.8574 35.7189 13.5747 35.7189 16.0535C35.7189 18.5323 37.2592 20.2176 39.5082 20.2176C41.7573 20.2176 43.2682 18.5002 43.2682 16.0535Z" fill="#6333A6"/>
<path d="M55.9016 8.45658V5.03881C55.9016 3.88822 54.9987 2.95678 53.8833 2.95678C52.768 2.95678 51.8651 3.88822 51.8651 5.03881V8.45658H50.4164C49.4805 8.45658 48.7223 9.23876 48.7223 10.2042C48.7223 11.1696 49.4805 11.9518 50.4164 11.9518H51.8651V17.5782C51.8651 21.457 54.083 24 58.0279 24C58.581 24 59.1433 23.966 59.7422 23.8602C60.6359 23.7015 61.2934 22.9061 61.2934 21.969C61.2934 20.7598 60.2238 19.8681 59.0737 20.091C58.8741 20.1307 58.6781 20.1515 58.4895 20.1515C56.9785 20.1515 55.9016 19.3561 55.9016 17.5763V11.9499H59.5993C60.5352 11.9499 61.2934 11.1678 61.2934 10.2023C61.2934 9.23687 60.5352 8.4547 59.5993 8.4547H55.9016V8.45658Z" fill="#6333A6"/>
<path d="M131.687 8.45658V5.03881C131.687 3.88822 130.784 2.95678 129.669 2.95678C128.554 2.95678 127.651 3.88822 127.651 5.03881V8.45658H126.202C125.266 8.45658 124.508 9.23876 124.508 10.2042C124.508 11.1696 125.266 11.9518 126.202 11.9518H127.651V17.5782C127.651 21.457 129.869 24 133.814 24C134.367 24 134.929 23.966 135.528 23.8602C136.422 23.7015 137.079 22.9061 137.079 21.969C137.079 20.7598 136.01 19.8681 134.859 20.091C134.66 20.1307 134.464 20.1515 134.275 20.1515C132.764 20.1515 131.687 19.3561 131.687 17.5763V11.9499H135.385C136.321 11.9499 137.079 11.1678 137.079 10.2023C137.079 9.23687 136.321 8.4547 135.385 8.4547H131.687V8.45658Z" fill="#6333A6"/>
<path d="M67.2109 17.2608C67.5186 19.0084 68.6284 20.3442 70.9397 20.3442C71.8848 20.3442 72.5697 20.1968 73.077 19.7131C73.2254 19.5714 73.414 19.4864 73.6155 19.4864H77.4762C77.6081 19.4864 77.7015 19.6243 77.652 19.749C76.5989 22.447 74.0422 24 70.9086 24C66.1944 24 63.0828 20.5671 63.0828 16.0535C63.0828 11.54 66.1633 8.07494 70.6632 8.07494C75.5843 8.07494 78.6062 11.8139 78.0494 16.8546C78.0238 17.0851 77.8388 17.2608 77.6154 17.2608H67.2109ZM67.3024 14.4325H73.9891C73.773 12.4941 72.5715 11.6042 70.6925 11.6042C68.72 11.6042 67.6724 12.8436 67.3024 14.4325Z" fill="#6333A6"/>
<path d="M85.1756 2.08203V21.5363C85.1756 22.6869 84.2727 23.6184 83.1574 23.6184C82.042 23.6184 81.1391 22.6869 81.1391 21.5363V2.08203C81.1391 0.931434 82.042 0 83.1574 0C84.2727 0 85.1756 0.931434 85.1756 2.08203Z" fill="#6333A6"/>
<path d="M99.7504 9.31434C98.6112 8.55105 97.1625 8.07494 95.5289 8.07494C91.4612 8.07494 88.1957 11.6344 88.1957 16.0535C88.1957 20.4726 91.463 24 95.5289 24C97.1625 24 98.6112 23.522 99.7504 22.7606C99.7504 23.2348 100.122 23.6184 100.582 23.6184H102.954C103.413 23.6184 103.785 23.2348 103.785 22.7606V9.31434C103.785 8.84012 103.413 8.45658 102.954 8.45658H100.582C100.122 8.45658 99.7504 8.84012 99.7504 9.31434ZM96.4556 20.6937C93.5857 20.9884 91.192 18.521 91.4759 15.5585C91.6865 13.3688 93.4044 11.5966 95.527 11.3812C98.3951 11.0884 100.787 13.5521 100.505 16.5126C100.296 18.7042 98.5801 20.4764 96.4556 20.6937Z" fill="#6333A6"/>
<path d="M118.206 9.31434C117.067 8.55105 115.618 8.07494 113.984 8.07494C109.917 8.07494 106.651 11.6344 106.651 16.0535C106.651 20.4726 109.917 24 113.984 24C115.618 24 117.067 23.522 118.206 22.7606C118.206 23.2348 118.578 23.6184 119.037 23.6184H121.409C121.869 23.6184 122.241 23.2348 122.241 22.7606V9.31434C122.241 8.84012 121.869 8.45658 121.409 8.45658H119.037C118.578 8.45658 118.206 8.84012 118.206 9.31434ZM114.909 20.6937C112.039 20.9865 109.649 18.5191 109.933 15.5585C110.144 13.3688 111.86 11.5966 113.984 11.3794C116.854 11.0865 119.246 13.5521 118.962 16.5126C118.752 18.7042 117.034 20.4764 114.911 20.6918L114.909 20.6937Z" fill="#6333A6"/>
<path d="M144.279 8.4547H142.03C141.094 8.4547 140.336 9.23713 140.336 10.2023V10.2042C140.336 11.1694 141.094 11.9518 142.03 11.9518H144.279C145.214 11.9518 145.973 11.1694 145.973 10.2042V10.2023C145.973 9.23713 145.214 8.4547 144.279 8.4547Z" fill="#FF6B55"/>
<path d="M153.306 8.4547H151.057C150.121 8.4547 149.363 9.23713 149.363 10.2023V10.2042C149.363 11.1694 150.121 11.9518 151.057 11.9518H153.306C154.242 11.9518 155 11.1694 155 10.2042V10.2023C155 9.23713 154.242 8.4547 153.306 8.4547Z" fill="#FF6B55"/>
<path d="M149.363 4.387C149.363 3.42181 148.604 2.63938 147.669 2.63938C146.733 2.63938 145.975 3.42181 145.975 4.387V6.70708C145.975 7.67226 146.733 8.4547 147.669 8.4547C148.604 8.4547 149.363 7.67226 149.363 6.70708V4.387Z" fill="#FF6B55"/>
<path d="M149.363 13.6994C149.363 12.7343 148.604 11.9518 147.669 11.9518C146.733 11.9518 145.975 12.7343 145.975 13.6994V16.0195C145.975 16.9847 146.733 17.7671 147.669 17.7671C148.604 17.7671 149.363 16.9847 149.363 16.0195V13.6994Z" fill="#FF6B55"/>
</svg>
