<svg width="20" height="19" viewBox="0 0 20 19" fill="none" xmlns="http://www.w3.org/2000/svg">
<path d="M9.99995 13C13.3137 13 16 10.3137 16 7C16 3.68629 13.3137 1 9.99995 1C6.68624 1 3.99995 3.68629 3.99995 7C3.99995 10.3137 6.68624 13 9.99995 13ZM9.99995 13L5.8535 17.1464C5.53852 17.4614 4.99995 17.2383 4.99995 16.7929V16C4.99995 14.8954 4.10452 14 2.99995 14H2.20706C1.76161 14 1.53852 13.4614 1.8535 13.1464L4.49995 10.5M9.99995 13L14.1464 17.1464C14.4614 17.4614 15 17.2383 15 16.7929V16C15 14.8954 15.8954 14 17 14H17.7928C18.2383 14 18.4614 13.4614 18.1464 13.1464L15.5 10.5" stroke="#6333A6" stroke-width="2" stroke-linecap="round"/>
</svg>
