<svg width="22" height="22" viewBox="0 0 22 22" fill="none" xmlns="http://www.w3.org/2000/svg">
<path d="M10.5516 1.9086C10.735 1.53698 11.265 1.53698 11.4484 1.9086L14.1165 7.31479C14.1893 7.46236 14.3301 7.56465 14.4929 7.58831L20.459 8.45524C20.8691 8.51483 21.0329 9.01882 20.7361 9.30808L16.419 13.5162C16.3012 13.6311 16.2474 13.7966 16.2752 13.9588L17.2944 19.9008C17.3644 20.3092 16.9357 20.6207 16.5689 20.4279L11.2327 17.6224C11.087 17.5458 10.913 17.5458 10.7673 17.6224L5.43109 20.4279C5.06428 20.6207 4.63556 20.3092 4.70562 19.9008L5.72474 13.9588C5.75256 13.7966 5.69879 13.6311 5.58095 13.5162L1.26385 9.30808C0.967087 9.01882 1.13084 8.51483 1.54095 8.45524L7.50704 7.58831C7.66989 7.56465 7.81068 7.46236 7.88351 7.31479L10.5516 1.9086Z" stroke="#6333A6" stroke-width="2"/>
</svg>
