<svg width="52" height="50" viewBox="0 0 52 50" fill="none" xmlns="http://www.w3.org/2000/svg">
<path d="M24.9538 3.45332C25.3817 2.5862 26.6182 2.5862 27.0462 3.45332L33.2718 16.0678C33.4417 16.4121 33.7702 16.6508 34.1502 16.706L48.0711 18.7288C49.028 18.8679 49.4101 20.0438 48.7177 20.7188L38.6444 30.5378C38.3695 30.8058 38.244 31.192 38.3089 31.5704L40.6869 45.435C40.8503 46.3881 39.85 47.1149 38.9941 46.6649L26.5429 40.1189C26.203 39.9402 25.797 39.9402 25.4571 40.1189L13.0059 46.6649C12.15 47.1149 11.1496 46.3881 11.3131 45.435L13.6911 31.5704C13.756 31.192 13.6305 30.8058 13.3555 30.5378L3.28231 20.7188C2.58987 20.0438 2.97196 18.8679 3.92889 18.7288L17.8498 16.706C18.2298 16.6508 18.5582 16.4121 18.7282 16.0678L24.9538 3.45332Z" stroke="#FF6B55" stroke-width="5"/>
</svg>
