<svg width="25" height="25" viewBox="0 0 25 25" fill="none" xmlns="http://www.w3.org/2000/svg">
<path d="M12 13L15 10M23 13C23 19.0751 18.0751 24 12 24C5.92487 24 1 19.0751 1 13C1 6.92488 5.92487 2.00001 12 2.00001M19 13C19 16.866 15.866 20 12 20C8.13401 20 5 16.866 5 13C5 9.13402 8.13401 6.00001 12 6.00001M15 9.50001V5.11958C15 4.98498 15.0543 4.85607 15.1505 4.76199L18.1505 1.83017C18.4671 1.52076 19 1.74508 19 2.18777V5.50001C19 5.77615 19.2239 6.00001 19.5 6.00001H22.8122C23.2549 6.00001 23.4792 6.53288 23.1698 6.84948L20.238 9.84948C20.1439 9.94574 20.015 10 19.8804 10H15.5C15.2239 10 15 9.77615 15 9.50001Z" stroke="#6333A6" stroke-width="2" stroke-linecap="round"/>
</svg>
