<svg width="24" height="24" viewBox="0 0 24 24" fill="none" xmlns="http://www.w3.org/2000/svg">
<path d="M12 24C12.5523 24 13 23.5523 13 23C13 22.4477 12.5523 22 12 22V24ZM22 12C22 12.5523 22.4477 13 23 13C23.5523 13 24 12.5523 24 12H22ZM1.27096 9.0266C0.733357 9.15309 0.400088 9.69145 0.526583 10.2291C0.653078 10.7667 1.19144 11.0999 1.72904 10.9734L1.27096 9.0266ZM8 12.5L8.94868 12.8162L8 12.5ZM7.10557 21.5528C6.85858 22.0468 7.05881 22.6474 7.55279 22.8944C8.04676 23.1414 8.64744 22.9412 8.89443 22.4472L7.10557 21.5528ZM4.78307 3.02381C4.24394 3.14362 3.90401 3.6778 4.02381 4.21693C4.14362 4.75606 4.6778 5.09599 5.21693 4.97619L4.78307 3.02381ZM12 5L11.3753 5.78087L12 5ZM21.4961 6.86825C21.9757 6.59424 22.1423 5.98339 21.8682 5.50387C21.5942 5.02435 20.9834 4.85775 20.5039 5.13176L21.4961 6.86825ZM22.2929 23.7071C22.6834 24.0976 23.3166 24.0976 23.7071 23.7071C24.0976 23.3166 24.0976 22.6834 23.7071 22.2929L22.2929 23.7071ZM12 22C6.47715 22 2 17.5228 2 12H0C0 18.6274 5.37258 24 12 24V22ZM2 12C2 6.47715 6.47715 2 12 2V0C5.37258 0 0 5.37258 0 12H2ZM12 2C17.5228 2 22 6.47715 22 12H24C24 5.37258 18.6274 0 12 0V2ZM1.72904 10.9734C3.11593 10.6471 4.87383 10.4139 6.08362 10.6339C6.69193 10.7445 6.97135 10.9355 7.08093 11.0859C7.15534 11.188 7.29127 11.4639 7.05132 12.1838L8.94868 12.8162C9.30873 11.7361 9.28633 10.7162 8.6972 9.90788C8.14323 9.14781 7.2539 8.81387 6.44138 8.66614C4.8095 8.36943 2.71741 8.68626 1.27096 9.0266L1.72904 10.9734ZM7.05132 12.1838C6.67772 13.3046 6.41701 14.1168 6.2588 14.7247C6.10412 15.319 6.01621 15.8263 6.06862 16.2979C6.12614 16.8156 6.34063 17.1792 6.52353 17.4666C6.70489 17.7516 6.88507 18.0062 7.10557 18.4472L8.89443 17.5528C8.61493 16.9938 8.35761 16.6234 8.21085 16.3928C8.06562 16.1646 8.06136 16.1219 8.05638 16.0771C8.04629 15.9862 8.05213 15.7747 8.19432 15.2284C8.33299 14.6957 8.57228 13.9454 8.94868 12.8162L7.05132 12.1838ZM7.10557 18.4472C7.71512 19.6663 7.35662 21.0507 7.10557 21.5528L8.89443 22.4472C9.31004 21.616 9.88488 19.5337 8.89443 17.5528L7.10557 18.4472ZM5.21693 4.97619C5.88309 4.82815 7.03626 4.6883 8.24283 4.77257C9.46718 4.85808 10.6048 5.16443 11.3753 5.78087L12.6247 4.21913C11.3952 3.23557 9.78282 2.87525 8.38217 2.77743C6.96374 2.67836 5.61691 2.83852 4.78307 3.02381L5.21693 4.97619ZM11.3753 5.78087C11.9024 6.20253 12.2687 6.67178 12.7064 7.20031C13.1132 7.69157 13.6297 8.29859 14.3867 8.65482C15.1888 9.03228 16.1131 9.06981 17.2402 8.78127C18.3454 8.49834 19.7177 7.8845 21.4961 6.86825L20.5039 5.13176C18.7823 6.11551 17.5921 6.62667 16.7442 6.84375C15.9182 7.0552 15.4987 6.96773 15.2383 6.84519C14.9328 6.70142 14.6681 6.43343 14.2468 5.92469C13.8563 5.45322 13.3476 4.79747 12.6247 4.21913L11.3753 5.78087ZM20.2353 17.1176C20.2353 18.8395 18.8395 20.2353 17.1176 20.2353V22.2353C19.944 22.2353 22.2353 19.944 22.2353 17.1176H20.2353ZM17.1176 20.2353C15.3958 20.2353 14 18.8395 14 17.1176H12C12 19.944 14.2912 22.2353 17.1176 22.2353V20.2353ZM14 17.1176C14 15.3958 15.3958 14 17.1176 14V12C14.2912 12 12 14.2912 12 17.1176H14ZM17.1176 14C18.8395 14 20.2353 15.3958 20.2353 17.1176H22.2353C22.2353 14.2912 19.944 12 17.1176 12V14ZM19.3517 20.7659L22.2929 23.7071L23.7071 22.2929L20.7659 19.3517L19.3517 20.7659Z" fill="#6333A6"/>
</svg>
