<svg width="20" height="20" viewBox="0 0 20 20" fill="none" xmlns="http://www.w3.org/2000/svg">
<path d="M8.47787 4.85208L7.43414 3.80951C6.38387 2.76041 6.75768 1 8.24299 1C10.2431 1 12.0538 1.8098 13.3646 3.11906C14.6753 4.42832 15.486 6.23705 15.486 8.23492C15.486 8.6022 15.4586 8.96309 15.4057 9.31566C15.276 10.181 15.4554 11.0991 16.0826 11.71L18.3272 13.896C19.2164 14.762 19.2254 16.1868 18.3473 17.064L17.0618 18.348C16.1915 19.2173 14.7804 19.2173 13.9101 18.348L11.6159 16.0564C11.0113 15.4525 10.117 15.2775 9.27046 15.3976C8.93482 15.4452 8.59178 15.4698 8.24299 15.4698C6.24289 15.4698 4.43214 14.66 3.12142 13.3508C1.8107 12.0415 1 10.2328 1 8.23492C1 6.75126 2.76237 6.37787 3.81265 7.42697L4.85637 8.46954C5.7267 9.33889 7.13778 9.33889 8.0081 8.46954L8.47787 8.0003C9.34819 7.13094 9.34819 5.72144 8.47787 4.85208Z" stroke="#6333A6" stroke-width="2" stroke-linecap="round"/>
</svg>
